<?xml version="1.0" encoding="utf-8"?>
<!-- Generator: Adobe Illustrator 17.1.0, SVG Export Plug-In . SVG Version: 6.00 Build 0)  -->
<!DOCTYPE svg PUBLIC "-//W3C//DTD SVG 1.1//EN" "http://www.w3.org/Graphics/SVG/1.1/DTD/svg11.dtd">
<svg version="1.1" id="レイヤー_1" xmlns="http://www.w3.org/2000/svg" xmlns:xlink="http://www.w3.org/1999/xlink" x="0px"
	 y="0px" viewBox="0 0 86 86" enable-background="new 0 0 86 86" xml:space="preserve">
<image display="none" overflow="visible" width="86" height="86" xlink:href="D:\home\Web\Briefing\trunk\contents\Block_HP\JPN\ja\img\ico_page_06_play.svg" >
</image>
<g>
	<path fill="#8E7631" d="M32.5,32.6h-5.2V22.1H22v15.7h10.5V32.6z M63.9,27.3h-5.2v5.2h-5.2v5.2h15.7v5.2h5.2v-5.2h5.2v-5.2H63.9
		V27.3z M32.5,32.6H43v-5.2h-5.2v-5.2H43v-5.2H27.2v5.2h5.2V32.6z M53.4,16.8v10.5h5.2V16.8H53.4z M79.7,58.8h-5.2v15.7h10.5V48.3
		h-5.2V58.8z M69.2,16.8v10.5h10.5v5.2h5.2V16.8H69.2z M37.7,43.1H11.5v5.2H6.2v5.2h5.2v5.2h21v5.2h5.2v-5.2H43V48.3h-5.2V43.1z
		 M58.7,43.1H43v5.2h5.2v5.2h15.7v-5.2h-5.2V43.1z M22,64.1h-5.2v5.2h-5.2v5.2H6.2v10.5h5.2v-5.2H22v-5.2h5.2v-5.2H22V64.1z
		 M63.9,48.3h5.2v-5.2h-5.2V48.3z"/>
	<path fill="#D9272E" d="M58.7,11.6V6.3H32.5v5.2h-5.2v5.2h47.2v-5.2H58.7z M69.2,64.1h-5.2v-5.2h5.2V48.3h-5.2v5.2H48.2v-5.2H43
		v10.5h-5.2v5.2h-5.2v-5.2H22v10.5h5.2v5.2H22v10.5h21v-5.2h15.7v-5.2h15.7V58.8h-5.2V64.1z M53.4,64.1h-5.2v-5.2h5.2V64.1z
		 M37.7,43.1v5.2H43v-5.2H37.7z M58.7,43.1v5.2h5.2v-5.2H58.7z"/>
	<path fill="#FFBE85" d="M69.2,22.1h-5.2v-5.2h-5.2v10.5h5.2v5.2h15.7v-5.2H69.2V22.1z M27.2,22.1v10.5h5.2V22.1H27.2z M53.4,16.8
		H43v5.2h-5.2v5.2H43v5.2H32.5v10.5h36.7v-5.2H53.4v-5.2h5.2v-5.2h-5.2V16.8z M69.2,1.1v10.5h5.2v5.2h10.5V1.1H69.2z M11.5,53.6H1
		v10.5h5.2v5.2h5.2v-5.2h5.2v-5.2h-5.2V53.6z M48.2,64.1h5.2v-5.2h-5.2V64.1z M63.9,64.1h5.2v-5.2h-5.2V64.1z"/>
</g>
</svg>
